<?xml version="1.0" standalone="no"?>
<!DOCTYPE svg PUBLIC "-//W3C//DTD SVG 20010904//EN"
 "http://www.w3.org/TR/2001/REC-SVG-20010904/DTD/svg10.dtd">
<svg version="1.0" xmlns="http://www.w3.org/2000/svg"
 width="400.000000pt" height="400.000000pt" viewBox="0 0 400.000000 400.000000"
 preserveAspectRatio="xMidYMid meet">

<g transform="translate(0.000000,400.000000) scale(0.100000,-0.100000)"
fill="#000000" stroke="none">
<path d="M605 3993 c-279 -40 -504 -238 -582 -513 -17 -62 -18 -137 -18 -1480
0 -1329 1 -1419 18 -1480 67 -245 252 -429 498 -497 60 -17 158 -18 1479 -18
1329 0 1419 1 1480 18 245 67 427 250 497 497 17 62 18 139 18 1480 0 1343 -1
1418 -18 1480 -56 197 -185 354 -363 444 -152 76 -26 70 -1584 72 -767 1
-1408 -1 -1425 -3z m1245 -203 c188 -53 399 -189 575 -371 92 -94 165 -180
165 -191 0 -3 -37 -28 -82 -56 -165 -101 -291 -219 -342 -320 -28 -55 -38
-134 -26 -204 6 -35 40 -130 75 -213 83 -197 105 -272 112 -376 13 -200 -78
-419 -247 -590 -96 -97 -186 -155 -300 -193 -90 -30 -236 -50 -305 -41 l-51 6
-24 -43 c-13 -23 -27 -64 -31 -91 -14 -84 -73 -118 -91 -52 -17 62 8 122 88
207 41 43 83 96 94 117 19 38 20 38 90 45 145 15 265 68 351 157 110 112 161
262 162 479 1 170 -12 221 -102 407 -76 156 -97 227 -87 295 10 65 56 153 125
238 80 98 101 142 101 212 0 41 -8 70 -31 116 -51 103 -136 155 -254 156 -94
1 -163 -33 -238 -114 -84 -90 -101 -143 -101 -310 -1 -202 26 -286 149 -465
34 -50 72 -117 84 -149 56 -152 51 -333 -16 -486 -25 -57 -64 -120 -74 -120
-3 0 -11 19 -18 43 -23 76 -94 199 -150 259 -47 52 -126 107 -137 96 -2 -2 8
-39 21 -81 53 -165 68 -358 40 -492 -8 -38 -30 -102 -49 -142 -30 -62 -33 -77
-25 -105 11 -41 12 -148 1 -148 -5 0 -43 9 -84 19 -163 42 -341 156 -537 346
-130 126 -133 128 -106 78 114 -213 349 -392 614 -469 47 -13 86 -26 88 -28 6
-6 -138 -63 -197 -77 -31 -8 -104 -14 -165 -13 -92 0 -122 5 -186 27 -115 39
-195 91 -291 187 -72 73 -94 102 -131 181 -53 109 -72 176 -87 309 -18 151 3
348 57 539 l27 95 22 -72 c22 -73 84 -180 128 -221 l24 -23 -11 44 c-6 23 -11
126 -11 228 0 163 3 200 27 313 99 467 293 764 620 951 93 52 237 102 355 121
118 19 294 13 392 -15z m65 -493 c-7 -28 16 -52 44 -44 41 10 29 -88 -15 -122
-43 -34 -99 -28 -140 13 -47 47 -47 95 0 142 28 28 42 34 75 34 38 0 41 -2 36
-23z m910 -1802 l0 -130 -53 -7 c-161 -23 -313 -157 -363 -319 -32 -102 -34
-99 80 -99 55 0 111 -4 124 -9 53 -20 44 -35 -144 -232 -147 -154 -186 -189
-208 -189 -21 0 -63 37 -214 188 -192 194 -202 208 -156 232 10 6 66 10 126
10 l109 0 12 91 c22 162 92 300 210 411 118 111 305 189 442 184 l35 -1 0
-130z m778 -383 c192 -194 202 -208 156 -232 -10 -6 -67 -10 -127 -10 l-109 0
-6 -70 c-19 -225 -173 -444 -382 -545 -88 -43 -208 -75 -280 -75 l-35 0 0 128
0 128 83 16 c102 19 163 47 227 105 56 51 105 140 120 222 18 97 25 91 -103
91 -117 0 -153 10 -146 42 2 9 86 100 186 202 135 138 187 186 205 186 17 0
73 -49 211 -188z"/>
</g>
</svg>
